Patient4_TMGait_0pt2_02_right_01_GRF.mot
version=1
nRows=58
nColumns=19
inDegrees=no
endheader
time	F1x	F1y	F1z	M1x	M1y	M1z	F2x	F2y	F2z	M2x	M2y	M2z	EC1x	EC1y	EC1z	EC2x	EC2y	EC2z
0.77	-3.328	773.4485	45.532	-256.0544	-52.1509	847.9847	-8.8876	-5.3425	1.5336	-0.99953	0.80684	-3.9539	-0.0592	0.0182	-0.0073	-0.0462	0.0165	0.9585
0.79193	-3.3088	786.6461	47.1012	-259.55	-53.305	861.7905	-6.1817	-3.0352	0.99608	-0.43148	0.66143	-2.0089	-0.0592	0.0182	-0.0073	-0.0462	0.0165	0.9585
0.81386	-3.1703	802.5096	48.7732	-263.8381	-54.4759	878.188	-3.8782	-1.0367	0.5374	0.065108	0.53831	-0.3196	-0.0592	0.0182	-0.0073	-0.0462	0.0165	0.9585
0.83579	-2.9649	819.5847	50.2766	-268.5298	-55.4103	895.6061	-2.1175	0.52674	0.18554	0.45966	0.44272	1.0097	-0.0592	0.0182	-0.0073	-0.0462	0.0165	0.9585
0.85771	-2.715	835.817	51.3431	-273.0364	-55.8388	911.8099	-0.89945	1.6447	-0.059526	0.74816	0.37608	1.9699	-0.0592	0.0182	-0.0073	-0.0462	0.0165	0.9585
0.87964	-2.3593	848.9803	51.7999	-276.6946	-55.5606	924.3496	-0.14783	2.3648	-0.21257	0.93879	0.33554	2.5965	-0.0592	0.0182	-0.0073	-0.0462	0.0165	0.9585
0.90157	-1.7968	857.1845	51.6124	-278.9243	-54.508	931.1422	0.2448	2.7531	-0.29479	1.0427	0.31483	2.9352	-0.0592	0.0182	-0.0073	-0.0462	0.0165	0.9585
0.9235	-0.94119	859.3394	50.8552	-279.3771	-52.7387	931.0038	0.38574	2.8642	-0.32562	1.0661	0.30505	3.0151	-0.0592	0.0182	-0.0073	-0.0462	0.0165	0.9585
0.94543	0.27604	855.369	49.6772	-278.0075	-50.401	923.8787	0.367	2.7241	-0.31865	1.0052	0.29555	2.8354	-0.0592	0.0182	-0.0073	-0.0462	0.0165	0.9585
0.96736	1.9027	846.143	48.2747	-275.0594	-47.7089	910.7455	0.26476	2.3225	-0.286	0.84732	0.27842	2.3619	-0.0592	0.0182	-0.0073	-0.0462	0.0165	0.9585
0.98929	3.9512	833.1669	46.8586	-270.9791	-44.906	893.278	0.13925	1.6237	-0.23559	0.5734	0.24558	1.5437	-0.0592	0.0182	-0.0073	-0.0462	0.0165	0.9585
1.0112	6.3986	818.1456	45.6155	-266.2822	-42.2135	873.3704	0.032988	0.58056	-0.16889	0.16021	0.1852	0.32473	-0.0592	0.0182	-0.0073	-0.0462	0.0165	0.9585
1.0331	9.198	802.6062	44.6597	-261.4393	-39.7736	852.7146	-0.022502	-0.84107	-0.085196	-0.4099	0.085225	-1.3346	-0.0592	0.0182	-0.0073	-0.0462	0.0165	0.9585
1.0551	12.3133	787.6881	44.0015	-256.8111	-37.6046	832.5633	0.00061871	-2.62	0.015391	-1.1317	-0.063254	-3.4136	-0.0592	0.0182	-0.0073	-0.0462	0.0165	0.9585
1.077	15.7163	774.099	43.5814	-252.628	-35.6421	813.7043	0.13208	-4.6291	0.13025	-1.955	-0.2663	-5.7653	-0.0592	0.0182	-0.0073	-0.0462	0.0165	0.9585
1.0989	19.362	762.2401	43.3221	-249.0209	-33.8055	796.6142	0.39605	-6.571	0.25174	-2.7591	-0.52227	-8.0375	-0.0592	0.0182	-0.0073	-0.0462	0.0165	0.9585
1.1209	23.1976	752.3411	43.1766	-246.0591	-32.0511	781.6014	0.80368	-7.9101	0.36174	-3.3228	-0.8135	-9.5951	-0.0592	0.0182	-0.0073	-0.0462	0.0165	0.9585
1.1428	27.1442	744.4432	43.1496	-243.7406	-30.4012	768.7959	1.3427	-7.7974	0.42552	-3.2942	-1.0942	-9.4333	-0.0592	0.0182	-0.0073	-0.0462	0.0165	0.9585
1.1647	31.061	738.2005	43.285	-241.9273	-28.945	757.9584	1.964	-5.0286	0.38842	-2.1729	-1.2789	-6.1252	-0.0592	0.0182	-0.0073	-0.0462	0.0165	0.9585
1.1866	34.7288	732.6391	43.6265	-240.2702	-27.8075	748.232	2.5634	1.9443	0.17565	0.68511	-1.2283	2.1617	-0.0592	0.0182	-0.0073	-0.0462	0.0165	0.9585
1.2086	37.8567	726.0536	44.1735	-238.1821	-27.096	738.0284	2.9626	14.9019	-0.30366	6.0208	-0.747	17.5278	-0.0592	0.0182	-0.0073	-0.0462	0.0165	0.9585
1.2305	40.1062	716.1645	44.8392	-234.896	-26.8501	725.1693	2.8927	35.5908	-1.1535	14.5641	0.41333	42.0267	-0.0592	0.0182	-0.0073	-0.0462	0.0165	0.9585
1.2524	41.1544	700.5094	45.4353	-229.6016	-27.0049	707.2646	1.9499	65.2616	-2.4725	26.845	2.5468	77.1179	-0.0592	0.0182	-0.0073	-0.0462	0.0165	0.9585
1.2744	40.7627	676.9632	45.7052	-221.6151	-27.4	682.2229	-0.37998	104.0277	-4.3273	42.9262	5.9445	122.9009	-0.0592	0.0182	-0.0073	-0.0462	0.0165	0.9585
1.2963	38.85	644.3012	45.3683	-210.5606	-27.7995	648.7945	-4.2974	150.421	-6.8078	62.2021	10.7878	177.5946	-0.0592	0.0182	-0.0073	-0.0462	0.0165	0.9585
1.3182	35.5988	602.7929	44.193	-196.5638	-27.9257	607.1466	-9.4476	201.5593	-10.1407	83.4533	17.1664	237.7118	-0.0592	0.0182	-0.0073	-0.0462	0.0165	0.9585
1.3401	31.4804	554.4152	42.113	-180.3144	-27.5546	559.0837	-15.1669	254.4703	-14.3082	105.4282	24.7499	299.6306	-0.0592	0.0182	-0.0073	-0.0462	0.0165	0.9585
1.3621	27.1118	502.3267	39.2438	-162.8851	-26.5784	507.5556	-20.7703	307.1652	-18.9003	127.308	32.7539	360.8997	-0.0592	0.0182	-0.0073	-0.0462	0.0165	0.9585
1.384	23.0329	449.833	35.7875	-145.3884	-24.9904	455.6775	-25.685	358.1487	-23.3303	148.4931	40.2427	419.6813	-0.0592	0.0182	-0.0073	-0.0462	0.0165	0.9585
1.4059	19.5724	399.6182	31.9685	-128.7222	-22.8669	405.9983	-29.4726	405.9997	-27.1247	168.4042	46.473	474.2741	-0.0592	0.0182	-0.0073	-0.0462	0.0165	0.9585
1.4279	16.8432	353.4416	28.0168	-113.4657	-20.3583	360.2017	-31.8873	449.3386	-30.0693	186.4572	51.0843	523.1047	-0.0592	0.0182	-0.0073	-0.0462	0.0165	0.9585
1.4498	14.8094	312.2057	24.153	-99.9056	-17.6636	319.1601	-32.9324	487.0418	-32.1595	202.1577	54.0681	564.9715	-0.0592	0.0182	-0.0073	-0.0462	0.0165	0.9585
1.4717	13.3778	276.2495	20.5842	-88.1336	-14.9988	283.2094	-32.7895	518.5178	-33.473	215.2313	55.5975	599.325	-0.0592	0.0182	-0.0073	-0.0462	0.0165	0.9585
1.4936	12.4432	245.6277	17.4919	-78.1427	-12.5655	252.431	-31.7042	543.7269	-34.1071	225.6463	55.9004	626.2568	-0.0592	0.0182	-0.0073	-0.0462	0.0165	0.9585
1.5156	11.8906	220.2421	14.985	-69.876	-10.508	226.7812	-29.9395	563.0496	-34.1612	233.5629	55.2188	646.3367	-0.0592	0.0182	-0.0073	-0.0462	0.0165	0.9585
1.5375	11.6005	199.8501	13.0856	-63.2318	-8.8955	206.083	-27.7559	577.1572	-33.736	239.2746	53.7982	660.4582	-0.0592	0.0182	-0.0073	-0.0462	0.0165	0.9585
1.5594	11.4621	183.9601	11.7593	-58.0336	-7.7424	189.9002	-25.3632	586.9029	-32.9304	243.1557	51.8582	669.6897	-0.0592	0.0182	-0.0073	-0.0462	0.0165	0.9585
1.5814	11.3798	171.6753	10.935	-53.9849	-7.0225	177.3668	-22.8755	593.2592	-31.862	245.627	49.5933	675.1827	-0.0592	0.0182	-0.0073	-0.0462	0.0165	0.9585
1.6033	11.2705	161.5749	10.4952	-50.6348	-6.6598	167.0582	-20.3276	597.3326	-30.6971	247.1532	47.2111	678.1855	-0.0592	0.0182	-0.0073	-0.0462	0.0165	0.9585
1.6252	11.0464	151.8067	10.2608	-47.407	-6.5196	157.0883	-17.7283	600.4179	-29.6546	248.2671	44.9595	680.1177	-0.0592	0.0182	-0.0073	-0.0462	0.0165	0.9585
1.6471	10.6006	140.5413	10.0119	-43.7385	-6.4318	145.5762	-15.0938	604.0601	-28.9475	249.6045	43.0787	682.6547	-0.0592	0.0182	-0.0073	-0.0462	0.0165	0.9585
1.6691	9.8138	126.5891	9.5492	-39.2669	-6.2473	131.2849	-12.4872	609.9417	-28.7132	251.8697	41.741	687.6261	-0.0592	0.0182	-0.0073	-0.0462	0.0165	0.9585
1.691	8.5931	109.7875	8.7628	-33.9472	-5.8895	114.0303	-10.0567	619.5312	-28.9799	255.6912	41.0351	696.6568	-0.0592	0.0182	-0.0073	-0.0462	0.0165	0.9585
1.7129	6.9493	90.9751	7.6661	-28.0415	-5.3623	94.6609	-8.0294	633.6457	-29.6569	261.4341	40.9579	710.6884	-0.0592	0.0182	-0.0073	-0.0462	0.0165	0.9585
1.7349	5.0207	71.5871	6.3622	-21.9923	-4.7172	74.6425	-6.6617	652.2287	-30.5483	269.1002	41.4049	729.7239	-0.0592	0.0182	-0.0073	-0.0462	0.0165	0.9585
1.7568	3.0324	53.1063	4.9901	-16.2538	-4.0126	55.4973	-6.1629	674.5142	-31.4068	278.3838	42.1891	752.9833	-0.0592	0.0182	-0.0073	-0.0462	0.0165	0.9585
1.7787	1.2365	36.6892	3.6801	-11.1772	-3.294	38.4304	-6.6452	699.4058	-32.0236	288.8185	43.114	779.2967	-0.0592	0.0182	-0.0073	-0.0462	0.0165	0.9585
1.8006	-0.13702	23.0565	2.5208	-6.9785	-2.5803	24.2133	-8.1195	725.9084	-32.2821	299.9531	44.0315	807.5655	-0.0592	0.0182	-0.0073	-0.0462	0.0165	0.9585
1.8226	-0.95458	12.5116	1.5614	-3.746	-1.8847	13.1825	-10.4894	753.3592	-32.1669	311.4507	44.8562	837.0045	-0.0592	0.0182	-0.0073	-0.0462	0.0165	0.9585
1.8445	-1.276	5.0064	0.82964	-1.4594	-1.2593	5.3033	-13.5293	781.2509	-31.7572	323.0224	45.5542	866.9521	-0.0592	0.0182	-0.0073	-0.0462	0.0165	0.9585
1.8664	-1.2783	0.18456	0.32539	-0.0046351	-0.75935	0.22506	-16.8814	808.7559	-31.2079	334.2434	46.1209	896.3629	-0.0592	0.0182	-0.0073	-0.0462	0.0165	0.9585
1.8884	-1.1088	-2.5106	0.01464	0.79293	-0.39794	-2.6197	-20.0935	834.2692	-30.7164	344.3793	46.5669	923.3316	-0.0592	0.0182	-0.0073	-0.0462	0.0165	0.9585
1.9103	-0.86959	-3.6753	-0.14862	1.1192	-0.1628	-3.8533	-22.6948	855.4323	-30.4581	352.4161	46.8857	945.1442	-0.0592	0.0182	-0.0073	-0.0462	0.0165	0.9585
1.9322	-0.62799	-3.847	-0.20783	1.1433	-0.030555	-4.0366	-24.3005	869.8308	-30.5021	357.3653	47.0069	959.065	-0.0592	0.0182	-0.0073	-0.0462	0.0165	0.9585
1.9541	-0.42261	-3.4568	-0.20075	1.0014	0.025436	-3.6189	-24.7139	875.9104	-30.7937	358.6439	46.818	963.3709	-0.0592	0.0182	-0.0073	-0.0462	0.0165	0.9585
1.9761	-0.27235	-2.8256	-0.15863	0.79371	0.028983	-2.9384	-23.972	873.5561	-31.2006	356.301	46.2282	957.9986	-0.0592	0.0182	-0.0073	-0.0462	0.0165	0.9585
1.998	-0.1809	-2.1751	-0.10527	0.58813	0.0021452	-2.2366	-22.2994	864.1273	-31.5761	351.0089	45.2097	944.5575	-0.0592	0.0182	-0.0073	-0.0462	0.0165	0.9585
2.0199	-0.14101	-1.6493	-0.056025	0.42785	-0.036843	-1.679	-20.0255	849.9561	-31.819	343.8317	43.8222	925.7408	-0.0592	0.0182	-0.0073	-0.0462	0.0165	0.9585
